<svg width="200" height="42" viewBox="0 0 200 42" fill="none" xmlns="http://www.w3.org/2000/svg">
<path d="M64.6448 38.157H56.5066V3.53125H50.7485H48.5988H44.6064C47.14 3.53125 48.2917 4.75966 48.5988 9.36618V38.3873H54.2034H56.5066H77.1592V29.3278C76.4683 32.3988 72.8598 38.0802 64.6448 38.157Z" fill="#F8F7F7"/>
<path d="M23.5696 4.29883C12.13 4.29883 2.91699 11.9764 2.91699 21.343C2.91699 30.7863 12.13 38.3871 23.5696 38.3871C35.0091 38.3871 44.2222 30.7863 44.2222 21.343C44.2222 11.8996 35.0091 4.29883 23.5696 4.29883ZM23.5696 38.3871C16.9669 38.3871 11.5926 30.7863 11.5926 21.4197C11.5926 12.0531 16.9669 4.3756 23.5696 4.3756C30.1723 4.3756 35.5466 11.9764 35.5466 21.4197C35.6233 30.7096 30.249 38.3871 23.5696 38.3871Z" fill="#F8F7F7"/>
<path d="M120.384 5.22134V11.0563V13.5899C120.384 11.4402 122.533 4.45359 128.138 4.45359H134.434L134.357 30.8643C134.51 35.6244 132.361 38.3883 129.597 38.3883H137.965H139.194H147.562C144.798 38.3883 142.572 35.6244 142.802 30.8643L142.956 4.37681H149.405C154.319 4.37681 155.931 11.5169 155.931 13.5131V10.6724V5.22134V4.14648H120.537V5.22134H120.384ZM138.58 37.3135C138.503 37.3135 138.503 37.3135 138.58 37.3135V37.3135Z" fill="#F8F7F7"/>
<path d="M120.537 32.1694L105.796 2.91797L93.1284 2.99474C96.0458 2.99474 98.8098 6.52641 96.1994 11.9775L86.2186 31.632C84.7598 34.4727 82.9172 38.6185 80.1533 38.6185H85.2973H85.9115H95.3549C92.4374 38.6185 85.6044 36.4688 87.447 29.7126L98.5794 7.8316C98.5794 7.8316 113.704 38.6185 113.09 38.6185H119.846H120.998H126.142C123.762 38.6185 121.919 34.703 120.537 32.1694Z" fill="#F8F7F7"/>
<path d="M193.705 4.3756H193.628H188.868C189.175 4.3756 191.325 5.60401 192.246 7.44662C193.398 9.82666 193.321 12.9745 193.321 13.4351C193.321 13.4351 193.321 22.6482 193.321 23.4159C193.244 33.1664 186.872 36.1606 180.653 36.1606C173.666 36.1606 169.52 30.1721 169.52 24.7979L169.597 12.0531C169.751 5.22013 173.359 4.29883 174.741 4.29883H169.52H159.847V25.7192C159.847 35.7 172.054 38.4639 177.275 38.4639C188.254 38.4639 193.705 33.627 193.705 25.8727V15.8919V13.7422C193.705 13.2048 193.551 9.82666 194.703 7.36985C195.547 5.60401 197.774 4.45238 198.081 4.45238H193.705V4.3756Z" fill="#F8F7F7"/>
</svg>
